<svg width="36" height="36" viewBox="0 0 36 36" fill="none" xmlns="http://www.w3.org/2000/svg">
<path fill-rule="evenodd" clip-rule="evenodd" d="M22.2502 15.9524C21.0861 16.8581 19.6083 17.3999 18.0002 17.3999C14.2447 17.3999 11.2003 14.445 11.2003 10.7998V6.89996C11.2003 6.02876 11.4127 5.20579 11.7903 4.47729C12.519 5.65893 13.8508 6.44993 15.373 6.44993H18.0776C20.382 6.44993 22.2502 8.26318 22.2502 10.4999V15.9524Z" fill="url(#paint0_linear_91_7116)"/>
<path fill-rule="evenodd" clip-rule="evenodd" d="M11.7901 4.47735C12.7049 2.71147 14.5885 1.5 16.7636 1.5H24.3C24.5762 1.5 24.8 1.72386 24.8 2V10.7999C24.8 12.8841 23.8047 14.7428 22.25 15.9523V10.4999C22.25 8.26309 20.3818 6.44998 18.0774 6.44998H15.3728C13.8506 6.44998 12.5188 5.65884 11.7901 4.47735Z" fill="url(#paint1_linear_91_7116)"/>
<path d="M5.25 29.55C5.25 24.0825 9.81669 19.65 15.45 19.65H20.55C26.1833 19.65 30.75 24.0825 30.75 29.55V34.5H5.25V29.55Z" fill="url(#paint2_linear_91_7116)"/>
<path d="M16.5142 19.6416H19.5142L18.0142 27.1416L16.5142 19.6416Z" fill="#F6F7F8"/>
<path fill-rule="evenodd" clip-rule="evenodd" d="M28.4127 24.4822C28.6326 24.6779 28.6368 25.0202 28.4217 25.2212L23.3065 30L20.2136 27.1105C20.002 26.9129 20.002 26.5775 20.2136 26.3798L20.2798 26.3179C20.8939 25.7442 21.8895 25.7442 22.5036 26.3179L23.3065 27.068L26.1298 24.4303C26.7333 23.8665 27.7079 23.8553 28.326 24.4051L28.4127 24.4822Z" fill="white"/>
<defs>
<linearGradient id="paint0_linear_91_7116" x1="22.2503" y1="4.4773" x2="6.59088" y2="14.52" gradientUnits="userSpaceOnUse">
<stop stop-color="#9AAED8"/>
<stop offset="1" stop-color="#83A0DE"/>
</linearGradient>
<linearGradient id="paint1_linear_91_7116" x1="24.8" y1="-3.42211" x2="5.88321" y2="11.7667" gradientUnits="userSpaceOnUse">
<stop stop-color="#4C86DF"/>
<stop offset="1" stop-color="#3C70C1"/>
</linearGradient>
<linearGradient id="paint2_linear_91_7116" x1="5.25" y1="14.5925" x2="23.476" y2="42.5076" gradientUnits="userSpaceOnUse">
<stop stop-color="#4C86DF"/>
<stop offset="1" stop-color="#3C70C1"/>
</linearGradient>
</defs>
</svg>
