<svg width="20" height="21" viewBox="0 0 20 21" fill="none" xmlns="http://www.w3.org/2000/svg">
<path fill-rule="evenodd" clip-rule="evenodd" d="M15.7227 2.30546C14.6488 1.23151 12.9076 1.23151 11.8336 2.30546L2.81802 11.3211C1.06066 13.0784 1.06066 15.9277 2.81802 17.685C4.57538 19.4424 7.42462 19.4424 9.18198 17.685L18.1976 8.66942C18.4905 8.37652 18.9654 8.37652 19.2583 8.66942C19.5511 8.96231 19.5511 9.43718 19.2583 9.73008L10.2426 18.7457C7.89949 21.0888 4.1005 21.0888 1.75736 18.7457C-0.585787 16.4025 -0.585786 12.6036 1.75736 10.2604L10.773 1.2448C12.4327 -0.414932 15.1236 -0.414932 16.7834 1.2448C18.4431 2.90452 18.4431 5.59548 16.7834 7.2552L8.12132 15.9173C7.14501 16.8936 5.5621 16.8936 4.58579 15.9173C3.60947 14.9409 3.60948 13.358 4.58579 12.3817L12.1872 4.78033C12.4801 4.48744 12.955 4.48744 13.2478 4.78033C13.5407 5.07322 13.5407 5.5481 13.2478 5.84099L5.64645 13.4424C5.25592 13.8329 5.25592 14.4661 5.64645 14.8566C6.03697 15.2471 6.67014 15.2471 7.06066 14.8566L15.7227 6.19454C16.7967 5.1206 16.7967 3.3794 15.7227 2.30546Z" fill="#457CD2"/>
</svg>
