<svg width="18" height="18" viewBox="0 0 18 18" fill="none" xmlns="http://www.w3.org/2000/svg">
<path fill-rule="evenodd" clip-rule="evenodd" d="M0.5934 13.3844L6.89718 1.95253C7.84257 0.238034 10.1574 0.238034 11.1028 1.95253L17.4066 13.3844C18.3687 15.1292 17.195 17.3333 15.3038 17.3333H2.69619C0.804969 17.3333 -0.368697 15.1292 0.5934 13.3844ZM7.98228 14.652C7.98228 14.9282 8.20613 15.152 8.48228 15.152H9.20352C9.65318 15.152 10.0177 14.7614 10.0177 14.2796V13.0347C10.0177 12.7585 9.79384 12.5347 9.5177 12.5347H8.79646C8.34679 12.5347 7.98228 12.9253 7.98228 13.4071V14.652ZM7.98228 10.726C7.98228 11.0021 8.20613 11.226 8.48228 11.226H9.20352C9.65318 11.226 10.0177 10.8354 10.0177 10.3535V6.05499C10.0177 5.77885 9.79384 5.55499 9.5177 5.55499H8.79646C8.34679 5.55499 7.98228 5.94561 7.98228 6.42742V10.726Z" fill="url(#paint0_linear_905_1100)"/>
<defs>
<linearGradient id="paint0_linear_905_1100" x1="0.250001" y1="-5.00963" x2="22.545" y2="15.8704" gradientUnits="userSpaceOnUse">
<stop stop-color="#4C86DF"/>
<stop offset="1" stop-color="#3C70C1"/>
</linearGradient>
</defs>
</svg>
