<svg width="30" height="28" viewBox="0 0 30 28" fill="none" xmlns="http://www.w3.org/2000/svg">
<path fill-rule="evenodd" clip-rule="evenodd" d="M19.9095 18.5408L20.6306 17.8216C21.6275 16.8273 23.1815 16.623 24.457 17.3185L27.4819 18.968C29.4245 20.0272 29.8525 22.6234 28.3343 24.1376L26.0851 26.381C25.5132 26.9514 24.8035 27.3683 23.9874 27.4446C22.0999 27.6211 18.2162 27.5258 13.6342 24.8355L19.9095 18.5408ZM10.5519 9.20761L11.0061 8.75467C12.1248 7.63887 12.2302 5.84745 11.2542 4.53965L9.25765 1.86442C8.04962 0.24575 5.71527 0.0319234 4.33063 1.41296L1.84543 3.8917C1.15886 4.57649 0.698782 5.46418 0.754572 6.4489C0.85705 8.25767 1.47171 11.5619 4.15695 15.6224L10.5519 9.20761Z" fill="url(#paint0_linear_1092_2757)"/>
<path d="M13.5159 15.584C8.85176 10.932 10.5407 9.21842 10.5512 9.20776L4.15625 15.6226C5.21105 17.2176 6.58536 18.9293 8.37362 20.7129C10.1782 22.5128 11.9528 23.8488 13.6335 24.8356L19.9088 18.541C19.9088 18.541 18.1947 20.2506 13.5159 15.584Z" fill="url(#paint1_linear_1092_2757)"/>
<defs>
<linearGradient id="paint0_linear_1092_2757" x1="0.750001" y1="-8.69558" x2="36.8799" y2="25.3204" gradientUnits="userSpaceOnUse">
<stop stop-color="#4C86DF"/>
<stop offset="1" stop-color="#3C70C1"/>
</linearGradient>
<linearGradient id="paint1_linear_1092_2757" x1="4.15614" y1="9.20776" x2="24.2038" y2="24.3636" gradientUnits="userSpaceOnUse">
<stop stop-color="#9AAED8"/>
<stop offset="1" stop-color="#83A0DE"/>
</linearGradient>
</defs>
</svg>
