<svg width="36" height="36" viewBox="0 0 36 36" fill="none" xmlns="http://www.w3.org/2000/svg">
<circle cx="18" cy="18" r="15.5" stroke="url(#paint0_linear_456_5003)" stroke-width="2"/>
<path fill-rule="evenodd" clip-rule="evenodd" d="M28.5 18C28.5 23.799 23.799 28.5 18 28.5C12.201 28.5 7.5 23.799 7.5 18C7.5 12.201 12.201 7.5 18 7.5C23.799 7.5 28.5 12.201 28.5 18ZM16.039 14.2628L14.2017 16.7486C13.4309 17.7916 13.0455 18.313 13.2578 18.723L13.2687 18.7433C13.4937 19.147 14.1593 19.147 15.4906 19.147C16.2304 19.147 16.6003 19.147 16.8324 19.3652L16.8444 19.3768L19.1675 16.6348L19.1555 16.6233C18.9284 16.4003 18.9284 16.0449 18.9284 15.3341V15.1483C18.9284 13.1775 18.9284 12.1921 18.3744 12.0223C17.8204 11.8525 17.2266 12.656 16.039 14.2628ZM17.0716 20.8517L17.0716 20.6659C17.0716 19.9551 17.0715 19.5997 16.8444 19.3768L19.1675 16.6348C19.3996 16.853 19.7696 16.853 20.5094 16.853C21.8407 16.853 22.5064 16.853 22.7313 17.2568L22.7422 17.277C22.9546 17.687 22.5692 18.2085 21.7983 19.2514L19.9611 21.7372C18.7734 23.344 18.1796 24.1474 17.6256 23.9777C17.0716 23.8079 17.0716 22.8225 17.0716 20.8517Z" fill="url(#paint1_linear_456_5003)"/>
<defs>
<linearGradient id="paint0_linear_456_5003" x1="1.49977" y1="1.5" x2="43.7398" y2="33.1803" gradientUnits="userSpaceOnUse">
<stop stop-color="#9AAED8"/>
<stop offset="1" stop-color="#83A0DE"/>
</linearGradient>
<linearGradient id="paint1_linear_456_5003" x1="7.5" y1="0.347878" x2="35.469" y2="25.2945" gradientUnits="userSpaceOnUse">
<stop stop-color="#4C86DF"/>
<stop offset="1" stop-color="#3C70C1"/>
</linearGradient>
</defs>
</svg>
