<svg width="24" height="24" viewBox="0 0 24 24" fill="none" xmlns="http://www.w3.org/2000/svg">
<g clip-path="url(#clip0_62_24217)">
<path fill-rule="evenodd" clip-rule="evenodd" d="M12 0C13.1367 0 13.705 0 14.1533 0.182689C14.751 0.426275 15.2259 0.893492 15.4735 1.48156C15.5866 1.75 15.6308 2.06217 15.6481 2.51753C15.6735 3.18679 16.0224 3.80629 16.612 4.14115C17.2015 4.47602 17.9213 4.46351 18.5231 4.15056C18.9326 3.93763 19.2295 3.81923 19.5223 3.7813C20.1638 3.69822 20.8125 3.86923 21.3258 4.25672C21.7108 4.54734 21.995 5.03156 22.5633 6L22.5633 6.00002C23.1316 6.96845 23.4158 7.45267 23.4791 7.92597C23.5636 8.55704 23.3897 9.19527 22.9959 9.70026C22.8161 9.93079 22.5634 10.1246 22.1711 10.367C21.5948 10.7233 21.2239 11.3302 21.2239 11.9999C21.2238 12.6696 21.5947 13.2766 22.1711 13.633C22.5633 13.8754 22.816 14.0692 22.9958 14.2997C23.3896 14.8046 23.5634 15.4429 23.479 16.074C23.4157 16.5473 23.1315 17.0315 22.5632 17.9999L22.5632 17.9999C21.9948 18.9684 21.7107 19.4526 21.3257 19.7432C20.8124 20.1307 20.1637 20.3017 19.5222 20.2186C19.2294 20.1807 18.9325 20.0623 18.523 19.8494C17.9212 19.5364 17.2014 19.5239 16.6118 19.8588C16.0224 20.1937 15.6735 20.8132 15.6481 21.4824C15.6308 21.9378 15.5866 22.25 15.4735 22.5184C15.2259 23.1065 14.751 23.5737 14.1533 23.8173C13.705 24 13.1367 24 12 24C10.8633 24 10.295 24 9.84671 23.8173C9.24896 23.5737 8.77406 23.1065 8.52646 22.5184C8.41344 22.25 8.36921 21.9378 8.3519 21.4825C8.32646 20.8132 7.97759 20.1937 7.38804 19.8588C6.79849 19.524 6.07873 19.5365 5.47687 19.8494C5.06738 20.0624 4.77046 20.1808 4.47766 20.2187C3.8362 20.3018 3.18747 20.1308 2.67417 19.7433C2.2892 19.4527 2.00504 18.9684 1.43671 18C0.868381 17.0316 0.584217 16.5473 0.52088 16.074C0.43643 15.443 0.610258 14.8047 1.00412 14.2997C1.18391 14.0692 1.4366 13.8755 1.8288 13.633C2.4052 13.2767 2.7761 12.6698 2.77614 12C2.77618 11.3302 2.40527 10.7232 1.8288 10.3668C1.43667 10.1244 1.18401 9.93067 1.00424 9.70018C0.610377 9.19519 0.43655 8.55696 0.520999 7.92589C0.584336 7.45258 0.8685 6.96836 1.43683 5.99992L1.43683 5.99992C2.00516 5.03148 2.28932 4.54726 2.67429 4.25664C3.18759 3.86915 3.83632 3.69814 4.47778 3.78122C4.7706 3.81915 5.06753 3.93756 5.47706 4.15051C6.07888 4.46345 6.79858 4.47596 7.38809 4.14112C7.97761 3.80627 8.32646 3.18682 8.3519 2.51759C8.36921 2.0622 8.41344 1.75001 8.52646 1.48156C8.77406 0.893492 9.24896 0.426275 9.84671 0.182689C10.295 0 10.8633 0 12 0ZM11.9999 15.6C14.0208 15.6 15.6591 13.9882 15.6591 12C15.6591 10.0118 14.0208 8.39999 11.9999 8.39999C9.97893 8.39999 8.34064 10.0118 8.34064 12C8.34064 13.9882 9.97893 15.6 11.9999 15.6Z" fill="url(#paint0_linear_62_24217)"/>
<path fill-rule="evenodd" clip-rule="evenodd" d="M14.1533 0.182689C13.705 0 13.1367 0 12 0V8.39999C14.0209 8.40006 15.6591 10.0118 15.6591 12C15.6591 13.9882 14.0209 15.5999 12 15.6V24H12C13.1367 24 13.705 24 14.1533 23.8173C14.751 23.5737 15.2259 23.1065 15.4735 22.5184C15.5866 22.25 15.6308 21.9378 15.6481 21.4824C15.6735 20.8132 16.0224 20.1937 16.6118 19.8588C17.2014 19.5239 17.9212 19.5364 18.523 19.8494C18.9325 20.0623 19.2294 20.1807 19.5222 20.2186C20.1637 20.3017 20.8124 20.1307 21.3257 19.7432C21.7107 19.4526 21.9948 18.9684 22.5632 17.9999C23.1315 17.0315 23.4157 16.5473 23.479 16.074C23.5635 15.4429 23.3896 14.8046 22.9958 14.2997C22.816 14.0692 22.5633 13.8754 22.1711 13.633C21.5947 13.2766 21.2238 12.6696 21.2239 11.9999C21.2239 11.3302 21.5948 10.7233 22.1711 10.367C22.5634 10.1246 22.8161 9.93079 22.9959 9.70026C23.3897 9.19527 23.5636 8.55704 23.4791 7.92597C23.4158 7.45267 23.1316 6.96846 22.5633 6.00005L22.5633 6L22.5633 5.99999C21.995 5.03156 21.7108 4.54734 21.3258 4.25672C20.8125 3.86923 20.1638 3.69822 19.5223 3.7813C19.2295 3.81923 18.9326 3.93763 18.5231 4.15056C17.9213 4.46351 17.2015 4.47602 16.612 4.14115C16.0224 3.80629 15.6735 3.18679 15.6481 2.51753C15.6308 2.06217 15.5866 1.75 15.4735 1.48156C15.2259 0.893492 14.751 0.426275 14.1533 0.182689Z" fill="url(#paint1_linear_62_24217)"/>
</g>
<defs>
<linearGradient id="paint0_linear_62_24217" x1="0.500001" y1="-8.17385" x2="32.2818" y2="18.9924" gradientUnits="userSpaceOnUse">
<stop stop-color="#4C86DF"/>
<stop offset="1" stop-color="#3C70C1"/>
</linearGradient>
<linearGradient id="paint1_linear_62_24217" x1="11.9999" y1="6.83948e-07" x2="32.3693" y2="7.32031" gradientUnits="userSpaceOnUse">
<stop stop-color="#9AAED8"/>
<stop offset="1" stop-color="#83A0DE"/>
</linearGradient>
<clipPath id="clip0_62_24217">
<rect width="24" height="24" rx="5" fill="white"/>
</clipPath>
</defs>
</svg>
