<svg width="29" height="30" viewBox="0 0 29 30" fill="none" xmlns="http://www.w3.org/2000/svg">
<path fill-rule="evenodd" clip-rule="evenodd" d="M14.25 0C15.6585 0 16.3627 0 16.9182 0.228361C17.6589 0.532843 18.2474 1.11686 18.5542 1.85195C18.6942 2.18749 18.749 2.57771 18.7705 3.14691C18.802 3.98349 19.2343 4.75785 19.9648 5.17644C20.6953 5.59502 21.5872 5.57938 22.333 5.18819C22.8404 4.92203 23.2083 4.77403 23.5712 4.72662C24.366 4.62277 25.1699 4.83654 25.8059 5.3209C26.2829 5.68417 26.6351 6.28944 27.3393 7.49998L27.3393 7.5L27.3393 7.50003C28.0435 8.71056 28.3956 9.31583 28.4741 9.90745C28.5788 10.6963 28.3634 11.4941 27.8753 12.1253C27.6525 12.4135 27.3394 12.6557 26.8534 12.9588C26.1392 13.4041 25.6796 14.1628 25.6796 14.9999C25.6795 15.837 26.1391 16.5958 26.8534 17.0412C27.3393 17.3442 27.6524 17.5864 27.8752 17.8746C28.3632 18.5058 28.5786 19.3036 28.474 20.0924C28.3955 20.6841 28.0434 21.2893 27.3391 22.4999C26.6349 23.7104 26.2828 24.3157 25.8058 24.679C25.1697 25.1633 24.3659 25.3771 23.571 25.2733C23.2082 25.2258 22.8403 25.0779 22.3329 24.8117C21.5871 24.4205 20.6952 24.4049 19.9647 24.8235C19.2342 25.2421 18.802 26.0164 18.7705 26.8529C18.749 27.4222 18.6942 27.8125 18.5542 28.148C18.2474 28.8831 17.6589 29.4671 16.9182 29.7716C16.3627 30 15.6585 30 14.25 30C12.8415 30 12.1373 30 11.5818 29.7716C10.8411 29.4671 10.2526 28.8831 9.94584 28.148C9.80579 27.8125 9.75098 27.4223 9.72953 26.8531C9.698 26.0165 9.26571 25.2421 8.53518 24.8235C7.80465 24.405 6.91278 24.4206 6.167 24.8118C5.65958 25.0779 5.29166 25.2259 4.92884 25.2734C4.13399 25.3772 3.33012 25.1634 2.69409 24.6791C2.21706 24.3158 1.86494 23.7105 1.16071 22.5L1.1607 22.5C0.456469 21.2894 0.104355 20.6842 0.0258726 20.0925C-0.0787711 19.3037 0.136624 18.5059 0.624672 17.8747C0.847457 17.5865 1.16057 17.3443 1.64655 17.0413C2.3608 16.5959 2.82039 15.8372 2.82044 15C2.82048 14.1628 2.36087 13.404 1.64656 12.9585C1.16066 12.6555 0.847583 12.4133 0.62482 12.1252C0.136772 11.494 -0.0786231 10.6962 0.0260206 9.90735C0.104503 9.31572 0.45662 8.71045 1.16085 7.4999L1.16085 7.49989C1.86509 6.28934 2.21721 5.68407 2.69423 5.3208C3.33027 4.83643 4.13413 4.62267 4.92898 4.72652C5.29183 4.77393 5.65977 4.92195 6.16723 5.18813C6.91296 5.57931 7.80477 5.59494 8.53525 5.17639C9.26574 4.75784 9.69801 3.98352 9.72953 3.14698C9.75098 2.57775 9.80578 2.18751 9.94584 1.85195C10.2526 1.11686 10.8411 0.532843 11.5818 0.228361C12.1373 0 12.8415 0 14.25 0ZM14.2498 19.5C16.7541 19.5 18.7841 17.4853 18.7841 15C18.7841 12.5147 16.7541 10.5 14.2498 10.5C11.7456 10.5 9.71559 12.5147 9.71559 15C9.71559 17.4853 11.7456 19.5 14.2498 19.5Z" fill="url(#paint0_linear_930_4226)"/>
<path fill-rule="evenodd" clip-rule="evenodd" d="M16.9182 0.228361C16.3627 0 15.6585 0 14.25 0V10.5C16.7541 10.5001 18.7841 12.5147 18.7841 15C18.7841 17.4852 16.7541 19.4999 14.25 19.5L14.25 30C15.6585 30 16.3627 30 16.9182 29.7716C17.6589 29.4671 18.2474 28.8831 18.5542 28.148C18.6942 27.8125 18.749 27.4222 18.7705 26.8529C18.802 26.0164 19.2342 25.2421 19.9647 24.8235C20.6952 24.4049 21.5871 24.4205 22.3329 24.8117C22.8403 25.0779 23.2082 25.2258 23.571 25.2733C24.3659 25.3771 25.1697 25.1633 25.8058 24.679C26.2828 24.3157 26.6349 23.7104 27.3391 22.4999C28.0434 21.2893 28.3955 20.6841 28.474 20.0924C28.5786 19.3036 28.3632 18.5058 27.8752 17.8746C27.6524 17.5864 27.3393 17.3442 26.8534 17.0412C26.1391 16.5958 25.6795 15.837 25.6796 14.9999C25.6796 14.1628 26.1392 13.4041 26.8534 12.9588C27.3394 12.6557 27.6525 12.4135 27.8753 12.1253C28.3634 11.4941 28.5788 10.6963 28.4741 9.90745C28.3956 9.31583 28.0435 8.71057 27.3393 7.50005L27.3393 7.5L27.3393 7.49996C26.6351 6.28943 26.2829 5.68417 25.8059 5.3209C25.1699 4.83654 24.366 4.62277 23.5712 4.72662C23.2083 4.77403 22.8404 4.92203 22.333 5.18819C21.5872 5.57939 20.6953 5.59502 19.9648 5.17644C19.2343 4.75786 18.802 3.98349 18.7705 3.14691C18.749 2.57771 18.6942 2.18749 18.5542 1.85195C18.2474 1.11686 17.6589 0.532843 16.9182 0.228361Z" fill="url(#paint1_linear_930_4226)"/>
<defs>
<linearGradient id="paint0_linear_930_4226" x1="1.07632e-06" y1="-10.2173" x2="39.6717" y2="23.3982" gradientUnits="userSpaceOnUse">
<stop stop-color="#4C86DF"/>
<stop offset="1" stop-color="#3C70C1"/>
</linearGradient>
<linearGradient id="paint1_linear_930_4226" x1="14.2499" y1="8.54934e-07" x2="39.5403" y2="9.00979" gradientUnits="userSpaceOnUse">
<stop stop-color="#9AAED8"/>
<stop offset="1" stop-color="#83A0DE"/>
</linearGradient>
</defs>
</svg>
