<svg width="28" height="30" viewBox="0 0 28 30" fill="none" xmlns="http://www.w3.org/2000/svg">
<path fill-rule="evenodd" clip-rule="evenodd" d="M27.5 0H0.5V15.3854C0.5 19.4638 2.67554 23.2483 6.2426 25.375L14 30L21.7574 25.375C25.3245 23.2483 27.5 19.4638 27.5 15.3854V0ZM23 4.39024H5V15.1084C5 17.5549 6.2533 19.8395 8.3397 21.1966L14 24.878L19.6603 21.1966C21.7467 19.8395 23 17.5549 23 15.1084V4.39024Z" fill="url(#paint0_linear_1092_2832)"/>
<path d="M3.5 3H24.5V15.5555C24.5 18.4215 23.0378 21.0977 20.6037 22.6874L14 27L7.39632 22.6874C4.96218 21.0977 3.5 18.4215 3.5 15.5555V3Z" fill="url(#paint1_linear_1092_2832)"/>
<defs>
<linearGradient id="paint0_linear_1092_2832" x1="0.500001" y1="-10.2173" x2="39.7657" y2="21.303" gradientUnits="userSpaceOnUse">
<stop stop-color="#4C86DF"/>
<stop offset="1" stop-color="#3C70C1"/>
</linearGradient>
<linearGradient id="paint1_linear_1092_2832" x1="3.49986" y1="3" x2="32.8569" y2="22.2657" gradientUnits="userSpaceOnUse">
<stop stop-color="#9AAED8"/>
<stop offset="1" stop-color="#83A0DE"/>
</linearGradient>
</defs>
</svg>
