<svg width="36" height="36" viewBox="0 0 36 36" fill="none" xmlns="http://www.w3.org/2000/svg">
<rect x="4.5" y="28.5" width="27" height="4.5" fill="url(#paint0_linear_456_5166)"/>
<path fill-rule="evenodd" clip-rule="evenodd" d="M18 3C10.5442 3 4.5 9.04416 4.5 16.5V28.5H31.5V16.5C31.5 9.04416 25.4558 3 18 3ZM18.7994 23.8774C20.675 23.4907 23.1 22.1031 23.1 18.5148C23.1 15.2495 20.776 13.0751 19.1049 12.076C18.7341 11.8543 18.3 12.1458 18.3 12.587V13.7153C18.3 14.605 17.9362 16.2291 16.9256 16.9046C16.4096 17.2495 15.8523 16.7333 15.7896 16.1037L15.7381 15.5867C15.6782 14.9856 15.083 14.6208 14.6159 14.9872C13.7768 15.6456 12.9 16.7984 12.9 18.5148C12.9 22.903 16.0733 24 17.66 24C17.7523 24 17.8492 23.9972 17.9502 23.9912C17.1667 23.9223 15.9 23.4224 15.9 21.8058C15.9 20.5412 16.797 19.6856 17.4786 19.2698C17.6619 19.1579 17.8764 19.3032 17.8764 19.5224V19.8859C17.8764 20.1642 17.9811 20.5991 18.2301 20.8969C18.512 21.2338 18.9257 20.8809 18.9591 20.4377C18.9696 20.2979 19.1063 20.2089 19.224 20.2796C19.6088 20.5109 20.1 21.005 20.1 21.8058C20.1 23.0695 19.4226 23.6509 18.7994 23.8774Z" fill="url(#paint1_linear_456_5166)"/>
<defs>
<linearGradient id="paint0_linear_456_5166" x1="4.49981" y1="28.5" x2="7.04097" y2="39.9353" gradientUnits="userSpaceOnUse">
<stop stop-color="#9AAED8"/>
<stop offset="1" stop-color="#83A0DE"/>
</linearGradient>
<linearGradient id="paint1_linear_456_5166" x1="4.5" y1="-5.68472" x2="38.6289" y2="26.5468" gradientUnits="userSpaceOnUse">
<stop stop-color="#4C86DF"/>
<stop offset="1" stop-color="#3C70C1"/>
</linearGradient>
</defs>
</svg>
