<svg width="92" height="17" viewBox="0 0 92 17" fill="none" xmlns="http://www.w3.org/2000/svg">
<path d="M61.4778 15.3174V7.09228H63.6183V13.3787H65.701V7.09228H67.8418V13.3787H69.9245V7.09228H72.065V15.3174H61.4778Z" fill="#231F20"/>
<path d="M74.7485 15.3174V7.09228H76.889V10.206H77.9073L79.7474 7.09228H82.1194L79.5736 11.0991L82.235 15.3174H79.8627L77.8959 12.145H76.889V15.3174H74.7485Z" fill="#231F20"/>
<path d="M86.6199 12.2622H88.7023L87.8695 9.88886C87.7999 9.68904 87.7304 9.48909 87.6611 9.05456C87.5919 9.48909 87.5223 9.68904 87.4528 9.88886L86.6199 12.2622ZM83.322 15.3174L86.504 7.09228H88.8183L91.9999 15.3174H89.8016L89.3389 14.0249H85.9831L85.5206 15.3174H83.322Z" fill="#231F20"/>
<path d="M19.1167 6.98691V15.3174H16.9487V10.8904L15.1908 13.6276H13.9486L12.1906 10.8783V15.3174H10.0227V6.98691H12.0734L14.5695 10.8904L17.0659 6.98691H19.1167Z" fill="#231F20"/>
<path d="M25.3882 8.83159C23.9699 8.83159 23.22 9.8195 23.22 11.1522C23.22 12.4852 23.9699 13.4729 25.3882 13.4729C26.8061 13.4729 27.5561 12.4852 27.5561 11.1522C27.5561 9.8195 26.8061 8.83159 25.3882 8.83159ZM25.3882 6.80849C28.3177 6.80849 29.7827 8.83159 29.7827 11.1522C29.7827 13.4729 28.3177 15.4961 25.3882 15.4961C22.4583 15.4961 20.9934 13.4729 20.9934 11.1522C20.9934 8.83159 22.4583 6.80849 25.3882 6.80849Z" fill="#231F20"/>
<path d="M37.7464 6.98691V8.95042H35.2774V15.3174H33.1092V8.95042H31.19L30.147 6.98691H37.7464Z" fill="#231F20"/>
<path d="M42.5595 8.86694H41.391V10.7471H42.5595C43.2075 10.7471 43.7862 10.5472 43.7862 9.80682C43.7862 9.06676 43.2075 8.86694 42.5595 8.86694ZM42.4554 6.98691C44.4574 6.98691 45.9845 7.64468 45.9845 9.80682C45.9845 11.969 44.4574 12.6154 42.4554 12.6269H41.391V15.3174H39.2505V6.98691H42.4554Z" fill="#231F20"/>
<path d="M4.39473 13.5098C2.97651 13.5098 2.22659 12.5223 2.22659 11.1894C2.22659 9.85662 2.97651 8.86871 4.39473 8.86871C5.19992 8.86871 5.7892 9.18787 6.1485 9.70731L7.58308 8.04242C6.85219 7.30915 5.79212 6.8456 4.39473 6.8456C1.46491 6.8456 0 8.86871 0 11.1894C0 13.5098 1.46491 15.5332 4.39473 15.5332C5.6257 15.5332 6.59473 15.1728 7.30845 14.5865L6.07051 12.7733C5.70649 13.2314 5.14524 13.5098 4.39473 13.5098Z" fill="#231F20"/>
<path d="M48.6978 3.75891C48.6978 2.42355 49.602 1.33855 50.8347 1.33855C51.9855 1.33855 52.9716 2.42355 52.9716 3.75891C52.9716 5.09427 52.0674 6.17927 50.8347 6.17927C49.6842 6.17927 48.6978 5.09427 48.6978 3.75891ZM55.6014 0.670868C56.7522 0.670868 57.7383 1.75587 57.7383 3.09123C57.7383 4.42659 56.8344 5.51159 55.6014 5.51159C54.4509 5.51159 53.4648 4.42659 53.4648 3.09123C53.4648 1.75587 54.3687 0.670868 55.6014 0.670868ZM59.0068 11.3736C58.9306 9.64726 57.5507 6.62264 57.3276 5.26125C57.9027 4.67693 58.2315 3.92577 58.2315 3.09123C58.2315 1.50553 57.081 0.253522 55.6836 0.253522C55.437 0.253522 55.1907 0.253523 55.0263 0.337029C54.9441 0.337029 54.8619 0.253522 54.7797 0.253522C53.4648 -0.247178 51.903 0.00318744 50.8347 0.921203C49.4376 0.921203 48.2871 2.17321 48.2871 3.75891C48.2871 4.67693 48.6978 5.51159 49.2732 6.01241C49.0266 7.09732 48.6159 8.3493 48.3693 9.10033C48.2871 9.35082 48.2049 9.60115 48.1227 9.85152C47.7939 10.8532 47.7939 11.938 48.0405 12.9396C48.9748 16.1024 52.4904 17.8398 55.4436 16.5947C57.5248 15.8021 59.1119 13.7616 59.0068 11.3736Z" fill="#231F20"/>
<path d="M56.2566 10.3601C54.8035 10.8099 53.2194 11.0718 51.5586 11.1101C51.4189 11.1133 51.2801 11.118 51.1395 11.118C50.9919 11.118 50.8453 11.1148 50.699 11.1108C50.6405 11.1091 50.5942 11.0576 50.5993 10.9984C50.6195 10.7742 50.6628 10.5569 50.7291 10.3497C51.1154 9.14273 52.2306 8.26961 53.5482 8.26961C54.8195 8.26961 55.9019 9.08302 56.3234 10.2245C56.3439 10.2802 56.3126 10.3428 56.2566 10.3601ZM57.5736 9.88637C56.9997 8.15078 55.3861 6.89987 53.4841 6.89987C51.7907 6.89987 50.3259 7.89112 49.6198 9.33289C49.3696 9.8435 49.2148 10.4105 49.1787 11.0103C49.1733 11.1 49.1697 11.1901 49.1697 11.281C49.1697 11.7057 49.2305 12.1158 49.3416 12.5042C49.8628 14.3283 51.5194 15.6621 53.4841 15.6621C54.2814 15.6621 55.0278 15.4415 55.6686 15.0582C55.7276 15.023 55.7348 14.9385 55.6839 14.8919L54.7954 14.0774C54.7662 14.0506 54.7246 14.044 54.6885 14.0594C54.3371 14.2085 53.9526 14.2924 53.5482 14.2924C52.3737 14.2924 51.3617 13.5972 50.8814 12.5915C50.9678 12.5928 51.053 12.5964 51.1395 12.5964C51.794 12.5964 52.4369 12.5598 53.0659 12.4921C54.2603 12.3635 55.4021 12.1166 56.471 11.769C56.9046 11.6281 57.3255 11.4702 57.7332 11.297C57.7723 11.2804 57.7979 11.2407 57.797 11.1979C57.7886 10.7399 57.71 10.2996 57.5736 9.88637Z" fill="white"/>
<path d="M50.8345 6.38208C50.2179 6.38208 49.6325 6.1064 49.1866 5.60594C48.7428 5.1075 48.4983 4.45166 48.4983 3.75902C48.4983 3.05694 48.731 2.40168 49.1541 1.91413C49.5895 1.41236 50.1862 1.13597 50.8345 1.13597C51.4515 1.13597 52.0365 1.41162 52.4824 1.91211C52.9265 2.41039 53.171 3.06639 53.171 3.75902C53.171 4.46111 52.938 5.11637 52.5149 5.60392C52.0798 6.10569 51.4831 6.38208 50.8345 6.38208Z" fill="#FBCE28"/>
<path d="M50.8347 0.933215C50.1283 0.933215 49.4782 1.23397 49.0046 1.78005C48.5493 2.30463 48.2988 3.00744 48.2988 3.75897C48.2988 4.13461 48.3657 4.5007 48.4979 4.84696C48.6252 5.18068 48.8071 5.4818 49.0389 5.74183C49.272 6.00351 49.543 6.20978 49.8444 6.35514C50.1602 6.50745 50.4935 6.58472 50.8347 6.58472C51.5413 6.58472 52.1911 6.28396 52.665 5.73788C53.12 5.21318 53.3708 4.51037 53.3708 3.75897C53.3708 3.3832 53.3037 3.01723 53.1718 2.67097C53.0444 2.33725 52.8623 2.03613 52.6307 1.77598C52.3974 1.51442 52.1264 1.30803 51.8253 1.16279C51.5091 1.01048 51.1761 0.933215 50.8347 0.933215ZM50.8347 1.33861C51.9855 1.33861 52.9716 2.4236 52.9716 3.75897C52.9716 5.09433 52.0674 6.17933 50.8347 6.17933C49.6842 6.17933 48.6978 5.09433 48.6978 3.75897C48.6978 2.4236 49.602 1.33861 50.8347 1.33861Z" fill="#231F20"/>
<path d="M55.6014 5.71436C54.9847 5.71436 54.3994 5.4387 53.9534 4.93822C53.5096 4.4399 53.2651 3.78393 53.2651 3.0913C53.2651 2.38922 53.4979 1.73395 53.9209 1.2464C54.3563 0.744509 54.9531 0.468246 55.6014 0.468246C56.2183 0.468246 56.8033 0.743898 57.2493 1.24438C57.6934 1.7427 57.9379 2.39867 57.9379 3.0913C57.9379 3.79338 57.7048 4.44865 57.2818 4.9362C56.8467 5.43797 56.2499 5.71436 55.6014 5.71436Z" fill="#FBCE28"/>
<path d="M55.6013 0.26549C54.8949 0.26549 54.2448 0.566247 53.7712 1.11232C53.3159 1.63703 53.0654 2.33984 53.0654 3.09124C53.0654 3.467 53.1323 3.83298 53.2645 4.17924C53.3918 4.51295 53.5737 4.81408 53.8055 5.07423C54.0386 5.33578 54.3096 5.54206 54.611 5.68742C54.9268 5.83972 55.2601 5.91699 55.6013 5.91699C56.3079 5.91699 56.958 5.61624 57.4316 5.07016C57.8866 4.54555 58.1374 3.84276 58.1374 3.09124C58.1374 2.71548 58.0703 2.3495 57.9384 2.00325C57.811 1.66953 57.6289 1.36841 57.3973 1.10826C57.1643 0.8467 56.8933 0.640304 56.5919 0.495063C56.276 0.342758 55.9427 0.26549 55.6013 0.26549ZM55.6013 0.670881C56.7521 0.670881 57.7382 1.75588 57.7382 3.09124C57.7382 4.4266 56.8343 5.5116 55.6013 5.5116C54.4508 5.5116 53.4647 4.4266 53.4647 3.09124C53.4647 1.75588 54.3686 0.670881 55.6013 0.670881Z" fill="#231F20"/>
<path d="M50.6702 3.75883C50.6702 3.42499 50.9991 3.09115 51.3279 3.09115C51.6568 3.09115 51.9857 3.42499 51.9857 3.75883C51.9857 4.09267 51.6568 4.42651 51.3279 4.42651C50.9991 4.42651 50.6702 4.17615 50.6702 3.75883Z" fill="#231F20"/>
<path d="M55.0775 3.88232C55.406 3.88232 55.7349 3.54861 55.7349 3.21464C55.7349 2.88092 55.406 2.54696 55.0775 2.54696C54.7486 2.54696 54.4197 2.88092 54.4197 3.21464C54.4197 3.54861 54.6663 3.88232 55.0775 3.88232Z" fill="#231F20"/>
</svg>
