<svg width="91" height="24" viewBox="0 0 91 24" fill="none" xmlns="http://www.w3.org/2000/svg">
<path d="M22.75 14.4H13.65L22.75 24H31.85L22.75 14.4Z" fill="#E31231"/>
<path d="M9.1 0H0L9.1 9.6L4.55 14.4H13.65L18.2 9.6L9.1 0Z" fill="#00519E"/>
<path d="M29.504 3.70947V5.76003H27.1453V12.3495H25.1078V5.76003H22.75V3.70947H29.504Z" fill="#00519E"/>
<path d="M41.5515 9.12771L44.6227 3.70947H46.7312V12.3495H44.7665V6.91779L41.6953 12.3495H39.5868V3.70947H41.5515V9.12771Z" fill="#00519E"/>
<path d="M50.9081 6.75363H51.152L53.5235 3.70947H56.1461L52.8373 7.72419L56.4155 12.3495H53.7264L51.1102 8.72163H50.9081V12.3495H48.8698V3.70947H50.9081V6.75363Z" fill="#00519E"/>
<path d="M60.5414 3.70947C58.0889 3.70947 56.4773 5.47395 56.4773 8.02947C56.4773 10.585 58.1244 12.3495 60.5414 12.3495C62.9583 12.3495 64.5781 10.5648 64.5781 8.01411C64.5781 5.46339 62.9938 3.70947 60.5414 3.70947ZM60.5414 10.3335C59.22 10.3335 58.4811 9.37347 58.4811 8.02947C58.4811 6.68547 59.2346 5.72547 60.5414 5.72547C61.8481 5.72547 62.5743 6.67779 62.5743 8.01411C62.5743 9.35043 61.8627 10.3325 60.5414 10.3325V10.3335Z" fill="#00519E"/>
<path d="M34.7893 3.70947H31.304V12.3495H33.3414V10.0138H34.7647C36.5537 10.0138 37.9497 8.83011 37.9497 6.87363C37.947 4.94115 36.571 3.70947 34.7893 3.70947ZM34.8366 7.96323H33.3433V5.76003H34.7993C35.5 5.76003 35.9095 6.11523 35.9095 6.87363C35.9113 7.60227 35.5127 7.96803 34.8366 7.96803V7.96323Z" fill="#00519E"/>
<path d="M87.8414 3.70947H84.3571V12.3495H86.3945V10.0138H87.8151C89.6041 10.0138 91.0001 8.83011 91.0001 6.87363C91.0001 4.94115 89.6232 3.70947 87.8414 3.70947ZM87.8879 7.96323H86.3945V5.76003H87.8505C88.5503 5.76003 88.9607 6.11523 88.9607 6.87363C88.9626 7.60227 88.5631 7.96803 87.8879 7.96803V7.96323Z" fill="#00519E"/>
<path d="M78.7531 3.70947C76.2961 3.70947 74.6891 5.47395 74.6891 8.02947C74.6891 10.585 76.3362 12.3495 78.7531 12.3495C81.1701 12.3495 82.7899 10.5648 82.7899 8.01411C82.7899 5.46339 81.2056 3.70947 78.7531 3.70947ZM78.7531 10.3335C77.4318 10.3335 76.6929 9.37347 76.6929 8.02947C76.6929 6.68547 77.4464 5.72547 78.7531 5.72547C80.0599 5.72547 80.7861 6.67779 80.7861 8.01411C80.7861 9.35043 80.0745 10.3325 78.7531 10.3325V10.3335Z" fill="#00519E"/>
<path d="M69.0417 5.75998C68.9989 6.35614 68.9507 6.95806 68.8897 7.55806C68.8251 8.18782 68.7423 8.80606 68.6304 9.41374C68.3082 11.1561 67.4419 12.2611 65.8021 12.3485C65.6347 12.3581 65.4718 12.3542 65.3062 12.3485V10.272C66.2162 10.2969 66.4728 9.93502 66.6411 9.03358C66.7503 8.44318 66.8459 7.66078 66.926 6.84958C67.0288 5.8051 67.1034 4.75582 67.1589 3.70654H73.255V12.3245H71.2175V5.75998H69.0417Z" fill="#00519E"/>
</svg>
