<svg width="208" height="150" viewBox="0 0 208 150" fill="none" xmlns="http://www.w3.org/2000/svg">
<path d="M107.761 86.7743C113.034 86.7743 118.108 87.6295 122.852 89.2093C124.481 89.7517 126.291 89.2348 127.373 87.9011C137.62 75.2591 153.242 67.1833 170.743 67.1833C173.367 67.1833 175.948 67.3648 178.476 67.716C180.302 67.9697 182.08 66.9613 182.881 65.3012C187.58 55.5662 196.911 48.5037 208 47V150H5C6.5686 132.526 21.1978 118.832 39.013 118.832C44.8955 118.832 50.4306 120.325 55.2629 122.954C57.7809 124.324 61.2299 123.036 62.0938 120.303C68.2384 100.862 86.3609 86.7743 107.761 86.7743Z" fill="white"/>
<g clip-path="url(#clip0_905_4658)">
<path d="M93.5883 64.4698C92.6073 64.4432 91.6138 64.302 90.6242 64.0369C83.8226 62.2144 79.7861 55.2231 81.6086 48.4214C81.7963 47.7209 82.0389 47.0497 82.3304 46.4113C82.2644 46.4477 82.1978 46.4796 82.1291 46.5076C81.6398 46.7073 81.1028 46.6862 80.0287 46.644L79.0508 46.6055C75.2709 46.457 73.381 46.3827 72.5917 47.6324C71.8025 48.8821 72.6367 50.6281 74.305 54.1201L74.7366 55.0236C75.2107 56.0159 75.4477 56.5121 75.4692 57.0531C75.4907 57.5941 75.2942 58.1187 74.9012 59.1679L74.5434 60.1231C73.1604 63.8153 72.4689 65.6613 73.353 66.8013C74.2371 67.9412 76.1113 67.6201 79.8598 66.9778L80.8296 66.8116C81.8948 66.6291 82.4274 66.5379 82.9299 66.6725C83.4325 66.8072 83.8481 67.1525 84.6793 67.8432L85.4361 68.472C88.3612 70.9024 89.8238 72.1177 91.1594 71.5725C92.4951 71.0273 92.8192 69.0828 93.4676 65.1938L93.5883 64.4698Z" fill="white"/>
<path opacity="0.5" d="M84.4798 44.3896L83.7768 45.1141C83.0046 45.9099 82.6185 46.3078 82.1292 46.5075C82.1979 46.4795 82.2645 46.4475 82.3304 46.4112C82.0389 47.0496 81.7964 47.7208 81.6087 48.4213C79.7862 55.223 83.8226 62.2143 90.6243 64.0368C91.6138 64.3019 92.6074 64.4431 93.5884 64.4697L93.6354 64.1876C93.8197 63.0824 93.9118 62.5299 94.2009 62.0721C94.49 61.6143 94.9434 61.3031 95.8501 60.6808L96.6756 60.1142C99.8664 57.9241 101.462 56.8291 101.403 55.3522C101.345 53.8754 99.6707 52.9947 96.3229 51.2335L95.4568 50.7778C94.5055 50.2773 94.0299 50.0271 93.706 49.6095C93.3821 49.1919 93.2467 48.6543 92.9759 47.579L92.7293 46.6C91.7762 42.816 91.2997 40.924 89.9278 40.5564C88.5559 40.1888 87.1972 41.5891 84.4798 44.3896Z" fill="white"/>
</g>
<path fill-rule="evenodd" clip-rule="evenodd" d="M13.0974 83.657L8.50426 89.8716C6.5772 92.4789 5.61367 93.7826 6.14459 94.8076C6.15338 94.8246 6.16243 94.8414 6.17174 94.8581C6.73416 95.8676 8.3983 95.8676 11.7266 95.8676C13.5761 95.8676 14.5009 95.8676 15.0809 96.4131L15.111 96.442L20.9188 89.587L20.8888 89.5582C20.321 89.0008 20.321 88.1123 20.321 86.3353V85.8707C20.321 80.9437 20.321 78.4803 18.936 78.0558C17.5509 77.6314 16.0664 79.6399 13.0974 83.657Z" fill="white"/>
<path opacity="0.5" d="M15.679 99.6648L15.679 100.129C15.6789 105.056 15.6789 107.52 17.0639 107.944C18.4489 108.369 19.9334 106.36 22.9025 102.343L27.4957 96.1285C29.4228 93.5211 30.3863 92.2175 29.8554 91.1924C29.8466 91.1754 29.8376 91.1586 29.8282 91.1419C29.2658 90.1325 27.6017 90.1325 24.2734 90.1325C22.4239 90.1325 21.4991 90.1325 20.9191 89.5869L15.1112 96.4419C15.679 96.9992 15.679 97.8878 15.679 99.6648Z" fill="white"/>
<g clip-path="url(#clip1_905_4658)">
<path d="M164.429 41.0346C164.153 40.5563 164.317 39.9447 164.795 39.6686L168.442 37.5631C168.681 37.425 168.987 37.507 169.125 37.7461L171.714 42.2309C171.99 42.7092 171.827 43.3208 171.348 43.5969L167.701 45.7024C167.462 45.8405 167.157 45.7585 167.018 45.5194L164.429 41.0346Z" fill="white"/>
<path opacity="0.5" d="M141.945 32.9308L145.022 33.7128C145.541 33.8447 146.069 33.5432 146.246 33.038C149.881 22.6323 160.813 16.3206 171.642 18.3754C172.168 18.4752 172.693 18.1683 172.838 17.6531L173.7 14.5975C160.049 11.3505 145.959 19.4853 141.945 32.9308Z" fill="white"/>
<path opacity="0.75" d="M149.151 34.756L152.247 35.5448C152.762 35.676 153.287 35.3791 153.478 34.8831C155.971 28.4124 162.78 24.4809 169.631 25.5573C170.156 25.6398 170.675 25.334 170.819 24.8223L171.684 21.7466C162.005 19.514 152.054 25.2594 149.151 34.756Z" fill="white"/>
<path d="M156.363 36.5884L159.476 37.3796C159.98 37.5077 160.492 37.2237 160.724 36.7584C162.006 34.1862 164.759 32.5995 167.629 32.773C168.147 32.8044 168.648 32.5032 168.789 32.0029L169.658 28.9127C163.957 27.684 158.149 31.0412 156.363 36.5884Z" fill="white"/>
</g>
<defs>
<clipPath id="clip0_905_4658">
<rect width="36" height="36" fill="white" transform="translate(73.3175 33) rotate(15)"/>
</clipPath>
<clipPath id="clip1_905_4658">
<rect width="44" height="44" fill="white" transform="translate(131.948 22.9475) rotate(-30)"/>
</clipPath>
</defs>
</svg>
