<svg width="272" height="179" viewBox="0 0 272 179" fill="none" xmlns="http://www.w3.org/2000/svg">
<path d="M141.739 91.2207C149.397 91.2207 156.75 92.537 163.59 94.9579C165.215 95.5333 167.038 95.0112 168.101 93.6529C182.218 75.604 204.076 64.0214 228.611 64.0214C232.643 64.0214 236.603 64.3343 240.469 64.9373C242.295 65.2221 244.083 64.21 244.838 62.5227C251.134 48.4336 264.288 38.1446 280 36V179H0C2.16359 154.74 22.3418 135.728 46.9145 135.728C55.8902 135.728 64.2795 138.265 71.4188 142.667C73.8648 144.176 77.2985 142.896 78.0581 140.124C85.7868 111.924 111.37 91.2207 141.739 91.2207Z" fill="white"/>
<path fill-rule="evenodd" clip-rule="evenodd" d="M33.0974 96.657L28.5043 102.872C26.5772 105.479 25.6137 106.783 26.1446 107.808C26.1534 107.825 26.1624 107.841 26.1717 107.858C26.7342 108.868 28.3983 108.868 31.7266 108.868C33.5761 108.868 34.5009 108.868 35.0809 109.413L35.111 109.442L40.9188 102.587L40.8888 102.558C40.321 102.001 40.321 101.112 40.321 99.3353V98.8707C40.321 93.9437 40.321 91.4803 38.936 91.0558C37.5509 90.6314 36.0664 92.6399 33.0974 96.657Z" fill="white"/>
<path opacity="0.5" d="M35.6791 112.665L35.6791 113.129C35.679 118.056 35.679 120.52 37.064 120.944C38.449 121.369 39.9336 119.36 42.9026 115.343L47.4958 109.128C49.4229 106.521 50.3864 105.217 49.8555 104.192C49.8467 104.175 49.8377 104.159 49.8284 104.142C49.2659 103.132 47.6018 103.132 44.2735 103.132C42.424 103.132 41.4993 103.132 40.9192 102.587L35.1113 109.442C35.6791 109.999 35.6791 110.888 35.6791 112.665Z" fill="white"/>
<path d="M125.588 67.4698C124.607 67.4432 123.614 67.302 122.624 67.0369C115.822 65.2144 111.786 58.2231 113.609 51.4214C113.796 50.7209 114.039 50.0497 114.33 49.4113C114.264 49.4477 114.198 49.4796 114.129 49.5076C113.64 49.7073 113.103 49.6862 112.029 49.644L111.051 49.6055C107.271 49.457 105.381 49.3827 104.592 50.6324C103.802 51.8821 104.637 53.6281 106.305 57.1201L106.736 58.0236C107.211 59.0159 107.448 59.5121 107.469 60.0531C107.491 60.5941 107.294 61.1187 106.901 62.1679L106.543 63.1231C105.16 66.8153 104.469 68.6613 105.353 69.8013C106.237 70.9412 108.111 70.6201 111.86 69.9778L112.829 69.8116C113.895 69.6291 114.427 69.5379 114.93 69.6725C115.432 69.8072 115.848 70.1525 116.679 70.8432L117.436 71.472C120.361 73.9024 121.824 75.1177 123.159 74.5725C124.495 74.0273 124.819 72.0828 125.467 68.1938L125.588 67.4698Z" fill="white"/>
<path opacity="0.5" d="M116.48 47.3896L115.777 48.1141C115.004 48.9099 114.618 49.3078 114.129 49.5075C114.198 49.4795 114.264 49.4475 114.33 49.4112C114.039 50.0496 113.796 50.7208 113.609 51.4213C111.786 58.223 115.823 65.2143 122.624 67.0368C123.614 67.3019 124.607 67.4431 125.588 67.4697L125.635 67.1876C125.82 66.0824 125.912 65.5299 126.201 65.0721C126.49 64.6143 126.943 64.3031 127.85 63.6808L128.675 63.1142C131.866 60.9241 133.462 59.8291 133.403 58.3522C133.344 56.8754 131.671 55.9947 128.323 54.2335L127.457 53.7778C126.505 53.2773 126.03 53.0271 125.706 52.6095C125.382 52.1919 125.247 51.6543 124.976 50.579L124.729 49.6C123.776 45.816 123.3 43.924 121.928 43.5564C120.556 43.1888 119.197 44.5891 116.48 47.3896Z" fill="white"/>
<path d="M226.482 40.0871C226.206 39.6088 226.369 38.9972 226.848 38.7211L230.495 36.6156C230.734 36.4775 231.039 36.5594 231.178 36.7986L233.767 41.2834C234.043 41.7617 233.879 42.3733 233.401 42.6494L229.754 44.7549C229.515 44.893 229.209 44.811 229.071 44.5719L226.482 40.0871Z" fill="white"/>
<path opacity="0.5" d="M203.998 31.9833L207.075 32.7653C207.593 32.8972 208.122 32.5957 208.298 32.0905C211.933 21.6848 222.866 15.3731 233.695 17.4279C234.22 17.5277 234.746 17.2208 234.891 16.7056L235.752 13.65C222.101 10.403 208.011 18.5378 203.998 31.9833Z" fill="white"/>
<path opacity="0.75" d="M211.203 33.8085L214.3 34.5972C214.815 34.7285 215.339 34.4316 215.53 33.9356C218.023 27.4649 224.833 23.5333 231.683 24.6098C232.208 24.6923 232.727 24.3865 232.871 23.8748L233.736 20.7991C224.058 18.5664 214.106 24.3119 211.203 33.8085Z" fill="white"/>
<path d="M218.416 35.6409L221.529 36.4321C222.033 36.5602 222.544 36.2762 222.776 35.8109C224.059 33.2387 226.811 31.652 229.681 31.8255C230.2 31.8569 230.701 31.5557 230.842 31.0554L231.711 27.9652C226.01 26.7365 220.201 30.0937 218.416 35.6409Z" fill="white"/>
</svg>
